<svg xmlns="http://www.w3.org/2000/svg" viewBox="0 0 40 80" fill="none">
  <path d="M8 4C12 8 20 14 24 22C28 30 30 40 30 40C30 40 28 50 24 58C20 66 12 72 8 76" stroke="currentColor" stroke-width="1.5" stroke-linecap="round"/>
  <path d="M12 10C16 14 22 20 25 27C28 34 29 40 29 40C29 40 28 46 25 53C22 60 16 66 12 70" stroke="currentColor" stroke-width="1" stroke-linecap="round" opacity="0.6"/>
  <path d="M16 16C19 20 23 26 25 32C27 38 28 40 28 40C28 40 27 42 25 48C23 54 19 60 16 64" stroke="currentColor" stroke-width="0.8" stroke-linecap="round" opacity="0.4"/>
  <circle cx="20" cy="4" r="1.5" fill="currentColor" opacity="0.8"/>
  <circle cx="20" cy="76" r="1.5" fill="currentColor" opacity="0.8"/>
</svg>
